<?xml version="1.0" encoding="utf-8"?>
<!-- Generator: Adobe Illustrator 19.0.0, SVG Export Plug-In . SVG Version: 6.00 Build 0)  -->
<svg version="1.1" id="Layer_1" xmlns="http://www.w3.org/2000/svg" xmlns:xlink="http://www.w3.org/1999/xlink" x="0px" y="0px"
	 viewBox="24 -21.4 87.3 83.4" style="enable-background:new 24 -21.4 87.3 83.4;" xml:space="preserve">
<style type="text/css">
	.st0{fill:#879496;}
	.st1{fill:none;}
</style>
<path class="st0" d="M95.3,50.2C95.2,50.3,95.3,50.2,95.3,50.2c-0.4,0.3-0.6,0.6-0.9,0.9c-0.6,0.6-1.2,1.2-1.8,1.8
	c-1.9,1.9-3.8,3.8-5.8,5.7c-0.9,0.9-1.7,1.8-2.6,2.7c-1.4,1-1.6,0.4-3-1C81,60.1,79,58,79,58c1.8-1.8,1.7-1.6,2.6-2.6
	c2.2-2.3,4.5-4.4,6.7-6.7c0.6-0.6,1.3-1.3,1.9-1.9C90.6,46.6,79,58,79,58c-0.3-0.2-0.6-0.6-0.9-0.9l-1.8-1.8c-2-2-3.9-3.9-5.9-5.9
	c-1.1-1.1,0,0.6-0.4-1.1c-0.4-1.3,0.9-2.5,1.5-2.9c0.3-0.2,0.7-0.1,1-0.3c2.5,0,3.2,1.2,4.4,2.5c2.1,2.1,1.5,1.5,3.7,3.6
	c0.6,0.6,2.5,2.6,2.6,2.6c0,0,19.4-19.3,23-23c1.4-1,3.5-0.4,4.2,0.7c0.6,0.9,0.6,2.6,0,3.5c-3.7,3.7-7.4,7.3-11.1,11
	c0.1,0.1,0,0,0.1,0.1"/>
<rect id="SVGID_3_" x="24.5" y="-20.4" class="st1" width="86.4" height="82.3"/>
<path class="st0" d="M48.2,36.2h18.4c1.5,0,2.6,1.2,2.6,2.6c0,1.5-1.2,2.6-2.6,2.6H48.2c-1.5,0-2.6-1.2-2.6-2.6
	C45.6,37.4,46.7,36.2,48.2,36.2L48.2,36.2z M48.2,36.2"/>
<path class="st0" d="M82.4,4.6H48.2c-1.5,0-2.6-1.2-2.6-2.6c0-1.5,1.2-2.6,2.6-2.6h34.2c1.5,0,2.6,1.2,2.6,2.6
	C85.1,3.5,83.9,4.6,82.4,4.6L82.4,4.6z M82.4,4.6"/>
<g>
	<path class="st0" d="M82.4,23.1H48.2c-1.5,0-2.6-1.2-2.6-2.6c0-1.5,1.2-2.6,2.6-2.6h34.2c1.5,0,2.6,1.2,2.6,2.6
		C85.1,21.9,83.9,23.1,82.4,23.1L82.4,23.1z M82.4,23.1"/>
	<path class="st0" d="M100.9-9.5c0-1.7,0.1-3.5-0.7-4.5c-0.8-1.1-2.7-1-4.6-1H34.8c-1.9,0-3.7-0.1-4.5,1c-0.7,1-0.6,2.8-0.6,4.5
		v59.6c0,1.9-0.1,4.6,1,5.4c0.9,0.7,2.1,0.7,3.7,0.7h30.5v0.1c0,0,0.1,0,0.1,0c1.5,0,2.6,1.2,2.6,2.6c0,1.5-1.2,2.6-2.6,2.6
		c-0.4,0-0.8-0.1-1.1-0.3H34.3c-1,0-2.1,0.1-3-0.2c-2.6-0.8-5-2.4-6.1-4.7c-0.9-2-0.8-4.7-0.8-7.6v-58c0-2-0.1-4,0.5-5.4
		c0.8-1.9,2.5-3.9,4.3-4.7c0.5-0.2,1.1-0.4,1.6-0.6c0.3-0.1,0.7,0,1-0.2h66.6c0.2,0.2,0.6,0.1,1,0.2c0.5,0.2,1.1,0.3,1.6,0.6
		c1.9,0.9,3.5,2.8,4.3,4.7c0.6,1.4,0.6,3.4,0.6,5.4v28.2c0.1,0.3,0.2,0.5,0.2,0.8c0,1.5-1.2,2.6-2.6,2.6c-1.5,0-2.6-1.2-2.6-2.6
		c0-0.1,0-0.1,0-0.1"/>
</g>
</svg>
