<?xml version="1.0" encoding="utf-8"?>
<!-- Generator: Adobe Illustrator 19.0.0, SVG Export Plug-In . SVG Version: 6.00 Build 0)  -->
<svg version="1.1" id="Layer_1" xmlns="http://www.w3.org/2000/svg" xmlns:xlink="http://www.w3.org/1999/xlink" x="0px" y="0px"
	 viewBox="-172 265.6 87.3 83.4" style="enable-background:new -172 265.6 87.3 83.4;" xml:space="preserve">
<style type="text/css">
	.st0{fill-rule:evenodd;clip-rule:evenodd;fill:#879496;}
</style>
<path class="st0" d="M-105.3,294.1c0-12.9-10.5-23.3-23.5-23.3s-23.5,10.4-23.5,23.3c0,12.9,10.5,23.3,23.5,23.3
	S-105.3,307-105.3,294.1z M-89.7,348.5h-5.2c-1-13.1-9.6-24.1-21.4-28.7c-3.8,1.8-7.9,2.8-12.4,2.8c-4.4,0-8.6-1-12.4-2.8
	c-11.8,4.6-20.4,15.6-21.4,28.7h-5.2c0.9-14,9.3-26,21.3-32c-6.7-5.2-11-13.3-11-22.4c0-15.7,12.8-28.5,28.7-28.5
	s28.7,12.8,28.7,28.5c0,9.1-4.3,17.2-11,22.4C-99.1,322.5-90.7,334.5-89.7,348.5z"/>
</svg>
