<?xml version="1.0" encoding="utf-8"?>
<!-- Generator: Adobe Illustrator 19.0.0, SVG Export Plug-In . SVG Version: 6.00 Build 0)  -->
<svg version="1.1" id="Layer_1" xmlns="http://www.w3.org/2000/svg" xmlns:xlink="http://www.w3.org/1999/xlink" x="0px" y="0px"
	 viewBox="-172 265.6 87.3 83.4" style="enable-background:new -172 265.6 87.3 83.4;" xml:space="preserve">
<style type="text/css">
	.st0{fill:#27AAE1;}
</style>
<path class="st0" d="M-124.4,349h-8.1c-2.4,0-4.6-1.4-5.5-3.7c-0.5-1.3-1.3-3.2-2.1-5.7c-0.9-0.3-1.9-0.7-2.8-1.2
	c-2.4,1.2-4.3,2.1-5.5,2.6c-2.2,0.9-4.8,0.4-6.5-1.3l-5.8-5.7c-1.7-1.7-2.2-4.2-1.3-6.5c0.5-1.3,1.4-3.2,2.6-5.5
	c-0.4-0.9-0.8-1.8-1.2-2.8c-2.5-0.8-4.5-1.5-5.7-2.1c-2.2-0.9-3.7-3.1-3.7-5.5v-8.1c0-2.4,1.4-4.6,3.7-5.5c1.3-0.5,3.2-1.3,5.7-2.1
	c0.3-0.9,0.7-1.9,1.2-2.8c-1.2-2.4-2.1-4.3-2.6-5.5c-0.9-2.2-0.4-4.8,1.3-6.5l5.7-5.8c1.7-1.7,4.2-2.2,6.5-1.3
	c1.3,0.5,3.2,1.4,5.5,2.6c0.9-0.4,1.8-0.8,2.8-1.2c0.8-2.5,1.5-4.5,2.1-5.7c0.9-2.2,3.1-3.7,5.5-3.7h8.1c2.4,0,4.6,1.4,5.5,3.7
	c0.5,1.3,1.3,3.2,2.1,5.7c0.9,0.3,1.9,0.7,2.8,1.2c2.4-1.2,4.3-2.1,5.5-2.6c2.2-0.9,4.8-0.4,6.5,1.3l5.8,5.7
	c1.7,1.7,2.2,4.2,1.3,6.5c-0.5,1.3-1.4,3.2-2.6,5.5c0.4,0.9,0.8,1.8,1.2,2.8c2.5,0.8,4.5,1.5,5.7,2.1c2.2,0.9,3.7,3.1,3.7,5.5v8.1
	c0,2.4-1.4,4.6-3.7,5.5c-1.3,0.5-3.2,1.3-5.7,2.1c-0.3,0.9-0.7,1.9-1.2,2.8c1.2,2.4,2.1,4.3,2.6,5.5c0.9,2.2,0.4,4.8-1.3,6.5
	l-5.7,5.8c-1.7,1.7-4.2,2.2-6.5,1.3c-1.3-0.5-3.2-1.4-5.5-2.6c-0.9,0.4-1.8,0.8-2.8,1.2c-0.8,2.5-1.5,4.5-2.1,5.7
	C-119.8,347.5-122,349-124.4,349L-124.4,349z M-142.9,332.2c0.5,0,1,0.1,1.4,0.3c1.5,0.8,3.1,1.4,4.7,2c0.9,0.3,1.7,1,2,2
	c0.9,3,1.8,5.3,2.3,6.7h8.1c0.6-1.4,1.4-3.6,2.3-6.7c0.3-0.9,1-1.7,2-2c1.6-0.5,3.2-1.2,4.7-2c0.9-0.5,1.9-0.5,2.8,0
	c2.8,1.5,5,2.5,6.3,3.1l5.7-5.7c-0.6-1.4-1.6-3.6-3.1-6.3c-0.5-0.9-0.5-1.9,0-2.8c0.8-1.5,1.4-3.1,2-4.7c0.3-0.9,1-1.7,2-2
	c3-0.9,5.3-1.8,6.7-2.3v-8.1c-1.4-0.6-3.6-1.4-6.7-2.3c-0.9-0.3-1.7-1-2-2c-0.5-1.6-1.2-3.2-2-4.7c-0.5-0.9-0.5-1.9,0-2.8
	c1.5-2.8,2.5-5,3.1-6.3l-5.7-5.7c-1.4,0.6-3.6,1.6-6.3,3.1c-0.9,0.5-1.9,0.5-2.8,0c-1.5-0.8-3.1-1.4-4.7-2c-0.9-0.3-1.7-1-2-2
	c-0.9-3-1.8-5.3-2.3-6.7h-8.1c-0.6,1.4-1.4,3.6-2.3,6.6c-0.3,1-1,1.7-2,2c-1.6,0.5-3.2,1.2-4.7,2c-0.9,0.5-1.9,0.5-2.8,0
	c-2.8-1.5-5-2.5-6.3-3.1l-5.7,5.7c0.6,1.4,1.6,3.6,3.1,6.3c0.5,0.9,0.5,1.9,0,2.8c-0.8,1.5-1.4,3.1-2,4.7c-0.3,0.9-1,1.7-2,2
	c-3,0.9-5.3,1.8-6.7,2.3v8.1c1.4,0.6,3.6,1.4,6.6,2.3c1,0.3,1.8,1.1,2.1,2c0.5,1.6,1.1,3.1,1.9,4.6c0.5,0.9,0.5,2,0,2.9
	c-1.5,2.7-2.5,4.9-3,6.3l5.7,5.7c1.4-0.6,3.6-1.6,6.3-3.1C-143.9,332.3-143.4,332.2-142.9,332.2L-142.9,332.2z"/>
<path class="st0" d="M-128.5,325.4c-9.8,0-17.7-7.9-17.7-17.7s7.9-17.7,17.7-17.7s17.7,7.9,17.7,17.7
	C-110.8,317.4-118.7,325.4-128.5,325.4L-128.5,325.4z M-128.5,295.9c-6.5,0-11.8,5.3-11.8,11.8s5.3,11.8,11.8,11.8
	s11.8-5.3,11.8-11.8C-116.7,301.2-122,295.9-128.5,295.9L-128.5,295.9z"/>
</svg>
