<?xml version="1.0" encoding="utf-8"?>
<!-- Generator: Adobe Illustrator 19.0.0, SVG Export Plug-In . SVG Version: 6.00 Build 0)  -->
<svg version="1.1" id="Layer_1" xmlns="http://www.w3.org/2000/svg" xmlns:xlink="http://www.w3.org/1999/xlink" x="0px" y="0px"
	 viewBox="-723 963.6 87.3 83.4" style="enable-background:new -723 963.6 87.3 83.4;" xml:space="preserve">
<style type="text/css">
	.st0{fill:#27AAE1;}
</style>
<g>
	<path class="st0" d="M-654.1,1023.8h-50.9c-1.5,0-2.7,1.2-2.7,2.7c0,1.5,1.2,2.7,2.7,2.7h50.9c1.5,0,2.7-1.2,2.7-2.7
		C-651.4,1025-652.6,1023.8-654.1,1023.8L-654.1,1023.8z M-654.1,1003.8h-16.1c-1.5,0-2.7,1.2-2.7,2.7s1.2,2.7,2.7,2.7h16.1
		c1.5,0,2.7-1.2,2.7-2.7S-652.6,1003.8-654.1,1003.8L-654.1,1003.8z M-643.4,1027.8c0,7.4-6,13.4-13.4,13.4h-45.5
		c-7.4,0-13.4-6-13.4-13.4v-45.5c0-7.4,6-13.4,13.4-13.4h45.5c7.4,0,13.4,6,13.4,13.4V1027.8z M-656.7,963.6h-45.5
		c-10.4,0-18.7,8.4-18.7,18.7v45.5c0,10.4,8.4,18.7,18.7,18.7h45.5c10.4,0,18.7-8.4,18.7-18.7v-45.5
		C-638,972-646.4,963.6-656.7,963.6L-656.7,963.6z M-654.1,983.7h-16.1c-1.5,0-2.7,1.2-2.7,2.7c0,1.5,1.2,2.7,2.7,2.7h16.1
		c1.5,0,2.7-1.2,2.7-2.7C-651.4,984.9-652.6,983.7-654.1,983.7L-654.1,983.7z M-702.3,990.4c0-1.5,1.2-2.7,2.7-2.7h12
		c1.5,0,2.7,1.2,2.7,2.7v12c0,1.5-1.2,2.7-2.7,2.7h-12c-1.5,0-2.7-1.2-2.7-2.7V990.4z M-702.3,1010.4h17.4c3,0,5.4-2.4,5.4-5.4
		v-17.4c0-3-2.4-5.4-5.4-5.4h-17.4c-3,0-5.4,2.4-5.4,5.4v17.4C-707.6,1008-705.2,1010.4-702.3,1010.4L-702.3,1010.4z M-702.3,1010.4
		"/>
</g>
</svg>
